<?xml version="1.0" encoding="iso-8859-1"?>
<!-- Uploaded to: SVG Repo, www.svgrepo.com, Generator: SVG Repo Mixer Tools -->
<svg fill="#000000" height="800px" width="800px" version="1.1" id="Layer_1" xmlns="http://www.w3.org/2000/svg" xmlns:xlink="http://www.w3.org/1999/xlink" 
	 viewBox="0 0 512 512" xml:space="preserve">
<g>
	<g>
		<path d="M425.785,136.786c-41.364-32.591-102.225-2.901-102.225,49.646v11.958H188.44v-11.958
			c0-52.643-60.951-82.166-102.225-49.646C54.039,106.634,0,130.026,0,175.255v161.492c0,45.231,54.04,68.619,86.213,38.467
			c41.363,32.59,102.225,2.905,102.225-49.646v-11.958H323.56v11.958c0,52.642,60.949,82.168,102.225,49.648
			C457.959,405.367,512,381.977,512,336.747V175.255C512,130.025,457.96,106.634,425.785,136.786z M62.049,338.703
			c0,5.532-4.501,10.03-10.033,10.03c-6.609,0-11.986-5.377-11.986-11.986V175.255c0-6.609,5.377-11.986,11.986-11.986
			c5.532,0,10.033,4.499,10.033,10.031C62.049,179.609,62.049,325.395,62.049,338.703z M148.41,325.568
			c0,12.773-10.392,23.165-23.165,23.165c-12.773,0-23.165-10.392-23.165-23.165V186.434c0-12.773,10.392-23.165,23.165-23.165
			c12.773,0,23.165,10.392,23.165,23.165C148.41,201.074,148.41,309.442,148.41,325.568z M323.56,273.58H188.44V238.42h135.12
			V273.58z M409.922,325.568c0,12.773-10.392,23.165-23.165,23.165c-12.773,0-23.165-10.392-23.165-23.165
			c0-15.221,0-123.333,0-139.134c0-12.773,10.392-23.165,23.165-23.165c12.773,0,23.165,10.392,23.165,23.165V325.568z
			 M471.97,336.746c0,6.609-5.377,11.986-11.988,11.986c-5.532,0-10.031-4.499-10.031-10.03c0-14.1,0-159.285,0-165.404
			c0-5.532,4.499-10.031,10.031-10.031c6.61,0,11.988,5.377,11.988,11.986V336.746z"/>
	</g>
</g>
</svg>