<?xml version="1.0" encoding="iso-8859-1"?>
<!-- Uploaded to: SVG Repo, www.svgrepo.com, Generator: SVG Repo Mixer Tools -->
<svg xmlns="http://www.w3.org/2000/svg" xmlns:xlink="http://www.w3.org/1999/xlink" version="1.1" id="Layer_1"  viewBox="0 0 369.249 369.249" xml:space="preserve" width="512" height="512">
<g>
	<polygon style="fill:#A5A9A6;" points="263.112,208.181 166.236,266.295 0,229.411 35.713,68.454 324.999,132.641  "/>
	<path style="fill:#1C7287;" d="M248.796,110.124c-4.143,0-7.5-3.357-7.5-7.5v-11.5c0-7.168-5.832-13-13-13h-49   c-7.168,0-13,5.832-13,13v11.5c0,4.143-3.357,7.5-7.5,7.5s-7.5-3.357-7.5-7.5v-11.5c0-15.439,12.561-28,28-28h49   c15.439,0,28,12.561,28,28v11.5C256.296,106.767,252.939,110.124,248.796,110.124z"/>
	<path style="fill:#165C6C;" d="M203.796,78.124h-24.5c-7.168,0-13,5.832-13,13v11.5c0,4.143-3.357,7.5-7.5,7.5s-7.5-3.357-7.5-7.5   v-11.5c0-15.439,12.561-28,28-28h24.5V78.124z"/>
	<path style="fill:#E45527;" d="M37.249,125.125v156c0,13.807,11.193,25,25,25h282c13.807,0,25-11.193,25-25v-156   c0-13.807-11.193-25-25-25h-282C48.442,100.125,37.249,111.318,37.249,125.125z"/>
	<path style="fill:#C0491F;" d="M37.249,125.125v156c0,13.807,11.193,25,25,25h141.547v-206H62.249   C48.442,100.125,37.249,111.318,37.249,125.125z"/>
</g>















</svg>