<svg xmlns="http://www.w3.org/2000/svg" height="408.46" viewBox="0 0 315.70312 408.46248" width="315.7"><g transform="matrix(1.25 0 0 -1.25 -5.3644 783.27)"><g transform="matrix(2.5 0 0 2.5 -189.34 -691.27)"><path d="m127.8 492.95-49.872 33.399v-29.624l6.197-4.128v-52.611c0-8.182 3.404-15.842 9.89-21.928 3.694-3.693 9.571-7.775 13.13-9.797 9.746-5.538 20.655-11.34 20.655-11.34s10.91 5.802 20.657 11.34c3.559 2.022 9.435 6.104 13.129 9.797 6.486 6.086 9.891 13.746 9.891 21.928v52.611l6.196 4.128v29.624l-49.873-33.399z" fill="#154734"/><path d="m7.7422 14.48v18.385l7.2539 4.8477c0.0013 28.099-0.002 69.918-0.002 69.918 0 10.291 5.9049 19.555 15.326 26.01h0.002v-42.65l28.148-18.873v-23.639l-50.728-33.998zm109.21 0.01172-50.727 33.98v23.652l28.148 18.871v16.795c-0.09375 5.6475-4.2405 11.89-12.824 15.576v-31.168l-15.33-10.271-0.0059 60.941c11.168-0.52 20.418-3.9234 28.16-9.2246 9.4237-6.4562 15.33-15.721 15.33-26.014l-0.002-24.811-29.713-19.922v-5.2012l14.385-9.6465v15.305l15.328 10.277v-35.906l7.25-4.8398v-18.395zm-86.625 33.562 14.385 9.6426v5.1992l-14.385 9.6426v-24.484z" transform="matrix(.8 0 0 -.8 77.926 526.35)" fill="#fff"/></g></g></svg>
